# xmcd
#
# Track frame offsets:
#	150
#	10935
#	28452
#	47211
#	66938
#	86141
#	103575
#	122880
#	143418
#	165688
#	178435
#	197196
#	222046
#	243277
#	263194
#
# Disc length: 3743 seconds
#
# Revision: 5
# Processed by: cddbd v1.5.2PL0 Copyright (c) Steve Scherf et al.
# Submitted via: Jack! The Knife 19 Blackthorn
#
DISCID=e00e9d0f
DTITLE=Giorgia - Spirito Libero [CD 1)
DYEAR=2008
DGENRE=Pop
TTITLE0=Per Fare A Meno Di Te
TTITLE1=Dimmi Dove Sei
TTITLE2=Gocce Di Memoria
TTITLE3=Voglio Solo Te
TTITLE4=Di Sole E D'azzurro
TTITLE5=Infinite Volte
TTITLE6=Tradirefare
TTITLE7=Riguarda Noi
TTITLE8=Come Saprei
TTITLE9=Parlo Con Te
TTITLE10=Strano Il Mio Destino
TTITLE11=Marzo
TTITLE12=L'eternità
TTITLE13=E Poi
TTITLE14=Ora Basta
EXTD=
EXTT0=
EXTT1=
EXTT2=
EXTT3=
EXTT4=
EXTT5=
EXTT6=
EXTT7=
EXTT8=
EXTT9=
EXTT10=
EXTT11=
EXTT12=
EXTT13=
EXTT14=
PLAYORDER=
